<svg xmlns="http://www.w3.org/2000/svg" width="1600" height="900" viewBox="0 0 1600 900">
  <defs>
    <linearGradient id="bg" x1="0" x2="1" y1="0" y2="1">
      <stop offset="0" stop-color="#0b0d10"/>
      <stop offset="0.55" stop-color="#0b0d10"/>
      <stop offset="1" stop-color="#10151b"/>
    </linearGradient>
    <radialGradient id="glow1" cx="35%" cy="30%" r="60%">
      <stop offset="0" stop-color="#ff2d55" stop-opacity="0.22"/>
      <stop offset="1" stop-color="#ff2d55" stop-opacity="0"/>
    </radialGradient>
    <radialGradient id="glow2" cx="70%" cy="65%" r="55%">
      <stop offset="0" stop-color="#f4c430" stop-opacity="0.14"/>
      <stop offset="1" stop-color="#f4c430" stop-opacity="0"/>
    </radialGradient>
    <linearGradient id="grid" x1="0" x2="0" y1="0" y2="1">
      <stop offset="0" stop-color="#ffffff" stop-opacity="0.06"/>
      <stop offset="1" stop-color="#ffffff" stop-opacity="0"/>
    </linearGradient>
    <pattern id="p" width="80" height="80" patternUnits="userSpaceOnUse">
      <path d="M80 0H0V80" fill="none" stroke="#ffffff" stroke-opacity="0.06"/>
      <path d="M0 40H80" fill="none" stroke="#ffffff" stroke-opacity="0.04"/>
      <path d="M40 0V80" fill="none" stroke="#ffffff" stroke-opacity="0.04"/>
    </pattern>
  </defs>

  <rect width="1600" height="900" fill="url(#bg)"/>
  <rect width="1600" height="900" fill="url(#glow1)"/>
  <rect width="1600" height="900" fill="url(#glow2)"/>
  <rect width="1600" height="900" fill="url(#p)" opacity="0.35"/>

  <g opacity="0.22">
    <path d="M-100 720 C 220 520, 520 900, 880 700 S 1500 620, 1750 820" fill="none" stroke="#ff2d55" stroke-width="3"/>
    <path d="M-120 780 C 250 560, 560 960, 920 740 S 1540 660, 1760 860" fill="none" stroke="#f4c430" stroke-width="2"/>
  </g>

  <rect width="1600" height="900" fill="url(#grid)"/>
</svg>
